<svg width="24" height="24" viewBox="0 0 24 24" fill="none" xmlns="http://www.w3.org/2000/svg">
<path d="M16.4544 6.7688H10.494C9.96872 6.7688 9.54291 7.19456 9.54291 7.71994C9.54291 8.24527 9.96867 8.67108 10.494 8.67108H16.4544C16.9801 8.67108 17.4056 8.24531 17.4056 7.71994C17.4055 7.19456 16.9798 6.7688 16.4544 6.7688Z" fill="#5E5CE6"/>
<path d="M18.7371 11.366H10.494C9.96872 11.366 9.54291 11.7917 9.54291 12.3171C9.54291 12.8424 9.96867 13.2682 10.494 13.2682H18.7371C19.2624 13.2682 19.6883 12.8425 19.6883 12.3171C19.6883 11.7917 19.2624 11.366 18.7371 11.366Z" fill="#5E5CE6"/>
<path d="M23.0489 0.80835H6.21398C5.68866 0.80835 5.26284 1.23412 5.26284 1.75949V10.7317H3.58256C1.60706 10.7317 0 12.3391 0 14.3143V19.6089C0 21.5844 1.60706 23.1914 3.58256 23.1914C3.74423 23.1914 3.90342 23.1807 4.05909 23.1597H19.7517C22.094 23.1597 24 21.254 24 18.9114V1.75949C24 1.23412 23.5742 0.80835 23.0489 0.80835ZM5.26289 19.6089C5.26289 20.424 4.6792 21.1056 3.90787 21.2575H3.58261V21.2892C2.65589 21.2892 1.90228 20.5352 1.90228 19.6088V14.3143C1.90228 13.3879 2.65622 12.634 3.58261 12.634H5.26294V19.6089H5.26289ZM22.0978 18.9114C22.0978 20.183 21.0236 21.2575 19.7517 21.2575H6.7628C7.01991 20.7638 7.16512 20.203 7.16512 19.6089V2.71058H22.0978V18.9114Z" fill="#5E5CE6"/>
<path d="M16.4544 15.678H10.494C9.96872 15.678 9.54291 16.1037 9.54291 16.6291C9.54291 17.1544 9.96867 17.5803 10.494 17.5803H16.4544C16.9801 17.5803 17.4056 17.1545 17.4056 16.6291C17.4055 16.1037 16.9798 15.678 16.4544 15.678Z" fill="#5E5CE6"/>
</svg>
