<svg width="25" height="25" viewBox="0 0 25 25" fill="none" xmlns="http://www.w3.org/2000/svg">
<g clip-path="url(#clip0)">
<path d="M24.2216 2.21179C24.1697 1.25844 23.4115 0.500333 22.4581 0.448302C20.5345 0.343208 16.7702 0.445442 13.1708 2.30718C11.3358 3.2563 9.39522 4.86547 7.84652 6.7221C7.82744 6.74497 7.80888 6.76799 7.78994 6.79091L4.27525 7.06241C3.69672 7.10713 3.18142 7.41036 2.86145 7.8943L0.463611 11.5211C0.220939 11.8881 0.182361 12.3475 0.360346 12.7498C0.538377 13.1522 0.904189 13.4326 1.33895 13.4999L4.3001 13.9586C4.28964 14.0161 4.27914 14.0736 4.26953 14.1312C4.17095 14.7209 4.36633 15.3272 4.79224 15.753L8.91686 19.8777C9.26997 20.2308 9.74711 20.4255 10.236 20.4255C10.3367 20.4255 10.438 20.4172 10.5387 20.4004C10.5963 20.3908 10.6538 20.3803 10.7114 20.3698L11.17 23.331C11.2374 23.7658 11.5178 24.1316 11.92 24.3096C12.0874 24.3837 12.2646 24.4202 12.4409 24.4202C12.6886 24.4202 12.9345 24.3481 13.1488 24.2064L16.7756 21.8085C17.2596 21.4885 17.5628 20.9732 17.6074 20.3947L17.8789 16.8801C17.9018 16.8611 17.9249 16.8426 17.9478 16.8235C19.8044 15.2748 21.4136 13.3341 22.3627 11.4992C24.2245 7.8996 24.3266 4.1353 24.2216 2.21179ZM16 20.6354L12.5308 22.9291L12.0838 20.0433C13.55 19.6122 15.0005 18.9217 16.3823 17.9967L16.2055 20.2863C16.1944 20.4291 16.1195 20.5564 16 20.6354ZM9.91122 18.8833L5.78655 14.7587C5.68131 14.6534 5.63266 14.5055 5.65652 14.3631C5.77914 13.6298 5.96969 12.9318 6.20556 12.2742L12.3944 18.463C11.6046 18.7459 10.8972 18.9147 10.3068 19.0134C10.1642 19.0371 10.0165 18.9886 9.91122 18.8833ZM4.38358 8.46449L6.67314 8.28763C5.74811 9.66946 5.05764 11.1199 4.62653 12.5862L1.74072 12.1392L4.0345 8.6699C4.11353 8.55036 4.2408 8.4755 4.38358 8.46449ZM17.0471 15.7435C15.9112 16.691 14.8085 17.3763 13.7922 17.8722L6.79745 10.8775C7.44705 9.55072 8.23984 8.44593 8.92638 7.6229C10.3596 5.90469 12.1421 4.42246 13.8169 3.55621C17.1204 1.84747 20.6009 1.75546 22.3816 1.8524C22.6172 1.86524 22.8047 2.05269 22.8175 2.28843C22.9146 4.06911 22.8224 7.54958 21.1137 10.8531C20.2475 12.5278 18.7652 14.3103 17.0471 15.7435Z" fill="#5E5CE6"/>
<path d="M16.69 11.4939C17.5901 11.4938 18.4906 11.1511 19.1759 10.4659C19.8399 9.8019 20.2055 8.91905 20.2055 7.98005C20.2055 7.04105 19.8399 6.15821 19.1759 5.49423C17.8052 4.12346 15.5748 4.12355 14.2042 5.49423C13.5402 6.15821 13.1745 7.04105 13.1745 7.98005C13.1745 8.91905 13.5402 9.8019 14.2042 10.4659C14.8896 11.1513 15.7896 11.494 16.69 11.4939ZM15.1985 6.48854C15.6097 6.0773 16.1498 5.87171 16.69 5.87171C17.2301 5.87171 17.7703 6.0773 18.1815 6.48854C18.5799 6.88693 18.7992 7.41662 18.7992 7.98001C18.7992 8.5434 18.5799 9.07313 18.1815 9.47152C17.3591 10.2939 16.0209 10.2939 15.1984 9.47152C14.8 9.07313 14.5806 8.54344 14.5806 7.98005C14.5806 7.41666 14.8001 6.88693 15.1985 6.48854Z" fill="#5E5CE6"/>
<path d="M0.967232 20.1983C1.14718 20.1983 1.32714 20.1297 1.46439 19.9924L3.76 17.6968C4.03459 17.4222 4.03459 16.977 3.76 16.7024C3.48545 16.4278 3.04023 16.4278 2.76564 16.7024L0.470075 18.998C0.195481 19.2726 0.195481 19.7178 0.470075 19.9924C0.607325 20.1297 0.787278 20.1983 0.967232 20.1983Z" fill="#5E5CE6"/>
<path d="M5.8638 18.8062C5.58926 18.5316 5.14404 18.5316 4.86944 18.8062L0.455976 23.2197C0.181382 23.4943 0.181382 23.9395 0.455976 24.2141C0.593273 24.3514 0.773179 24.42 0.953132 24.42C1.13309 24.42 1.31304 24.3514 1.45029 24.2141L5.86376 19.8006C6.1384 19.526 6.1384 19.0808 5.8638 18.8062Z" fill="#5E5CE6"/>
<path d="M6.97323 20.91L4.67762 23.2056C4.40303 23.4802 4.40303 23.9254 4.67762 24.2C4.81492 24.3373 4.99487 24.406 5.17478 24.406C5.35469 24.406 5.53469 24.3373 5.67194 24.2L7.96755 21.9044C8.24214 21.6298 8.24214 21.1846 7.96755 20.91C7.693 20.6354 7.24778 20.6354 6.97323 20.91Z" fill="#5E5CE6"/>
</g>
<defs>
<clipPath id="clip0">
<rect width="24" height="24" fill="white" transform="translate(0.25 0.420013)"/>
</clipPath>
</defs>
</svg>
