<svg width="30" height="30" viewBox="0 0 30 30" fill="none" xmlns="http://www.w3.org/2000/svg">
<g clip-path="url(#clip0)">
<path d="M29.1484 7.15747C29.092 7.15553 27.9333 7.11641 26.2325 7.154V3.66682C26.2325 3.15276 25.7936 2.74506 25.2767 2.78753C21.8855 3.07064 17.5708 4.56917 15 7.30241C12.4292 4.56917 8.11451 3.07064 4.72322 2.78753C4.20734 2.74553 3.76746 3.15141 3.76746 3.66682V7.24829C2.8011 7.21182 1.88704 7.18611 0.908514 7.15735C0.414985 7.14176 -1.52588e-05 7.53929 -1.52588e-05 8.03929V24.1081C-1.52588e-05 24.5725 0.359808 24.9573 0.823102 24.9885C4.33298 25.2247 10.2123 25.2513 14.6539 27.1456C15.0497 27.3147 15.405 27.1205 15.3462 27.1456C19.7876 25.2513 25.6659 25.2248 29.177 24.9885C29.6402 24.9573 30.0001 24.5725 30.0001 24.1081V8.03929C30 7.56394 29.6235 7.17406 29.1484 7.15747ZM24.4678 4.65923V19.7821C21.9233 20.3512 18.6987 21.5658 15.8823 24.1412C15.8823 23.3644 15.8823 9.39441 15.8823 8.97429C17.8129 6.56547 21.4692 5.11359 24.4678 4.65923ZM5.53216 4.65923C8.53081 5.11359 12.187 6.56547 14.1176 8.97429V24.1412C11.3013 21.5658 8.07663 20.3512 5.53216 19.7821V4.65923ZM1.76469 23.2778V8.948C2.39651 8.9667 3.07228 8.98782 3.76746 9.01435V20.5012C3.76746 20.9258 4.06981 21.2901 4.48704 21.3684C6.50181 21.7466 9.12181 22.5674 11.5637 24.3348C8.07987 23.5535 4.43328 23.4279 1.76469 23.2778ZM28.2353 23.2778C25.571 23.4276 21.9215 23.5531 18.4362 24.3348C20.8781 22.5674 23.4982 21.7466 25.5129 21.3684C25.9301 21.2901 26.2325 20.9258 26.2325 20.5012V8.91929C27.0446 8.90111 27.7363 8.90088 28.2352 8.90541V23.2778H28.2353Z" fill="#8E8E93"/>
<path d="M11.8298 11.0068C11.1464 10.5307 9.96824 9.94628 8.71088 9.73381C8.23059 9.65228 7.77505 9.97634 7.69382 10.4568C7.61264 10.9373 7.93635 11.3926 8.41688 11.4738C9.38765 11.6379 10.3187 12.1048 10.8211 12.4548C11.2208 12.7332 11.7708 12.6351 12.0494 12.2352C12.3279 11.8353 12.2297 11.2853 11.8298 11.0068Z" fill="#8E8E93"/>
<path d="M11.7415 15.9757C11.1127 15.5917 9.88288 14.918 8.71088 14.7199C8.23058 14.6385 7.77505 14.9624 7.69382 15.4429C7.61264 15.9234 7.93635 16.3787 8.41688 16.4599C9.32988 16.6142 10.4028 17.2258 10.8216 17.4817C11.2381 17.7359 11.7809 17.604 12.0346 17.1886C12.2886 16.7727 12.1573 16.2297 11.7415 15.9757Z" fill="#8E8E93"/>
<path d="M19.1789 12.4548C19.6813 12.1048 20.6124 11.6379 21.5831 11.4738C22.0636 11.3926 22.3873 10.9373 22.3062 10.4568C22.225 9.9763 21.7695 9.65212 21.2891 9.73382C20.0318 9.94624 18.8536 10.5307 18.1702 11.0068C17.7704 11.2854 17.6721 11.8354 17.9506 12.2352C18.2293 12.6352 18.7795 12.7331 19.1789 12.4548Z" fill="#8E8E93"/>
<path d="M21.2891 14.7199C20.1171 14.9179 18.8873 15.5917 18.2585 15.9757C17.8427 16.2297 17.7114 16.7728 17.9654 17.1886C18.2194 17.6045 18.7624 17.7357 19.1784 17.4818C19.5972 17.2259 20.6701 16.6142 21.5831 16.4599C22.0636 16.3788 22.3873 15.9235 22.3062 15.4429C22.225 14.9624 21.7695 14.6382 21.2891 14.7199Z" fill="#8E8E93"/>
</g>
<defs>
<clipPath id="clip0">
<rect width="30" height="30" fill="white"/>
</clipPath>
</defs>
</svg>
