<svg width="30" height="30" viewBox="0 0 30 30" fill="none" xmlns="http://www.w3.org/2000/svg">
<g clip-path="url(#clip0)">
<path d="M29.1484 7.15741C29.092 7.15546 27.9333 7.11635 26.2325 7.15393V3.66676C26.2325 3.1527 25.7936 2.745 25.2767 2.78747C21.8855 3.07058 17.5708 4.56911 15 7.30235C12.4292 4.56911 8.11451 3.07058 4.72322 2.78747C4.20734 2.74547 3.76746 3.15135 3.76746 3.66676V7.24823C2.8011 7.21176 1.88704 7.18605 0.908514 7.15729C0.414985 7.1417 -1.52588e-05 7.53923 -1.52588e-05 8.03923V24.108C-1.52588e-05 24.5724 0.359808 24.9573 0.823102 24.9884C4.33298 25.2246 10.2123 25.2512 14.6539 27.1456C15.0497 27.3146 15.405 27.1205 15.3462 27.1456C19.7876 25.2513 25.6659 25.2248 29.177 24.9884C29.6402 24.9573 30.0001 24.5724 30.0001 24.108V8.03923C30 7.56388 29.6235 7.17399 29.1484 7.15741ZM24.4678 4.65917V19.782C21.9233 20.3512 18.6987 21.5658 15.8823 24.1411C15.8823 23.3643 15.8823 9.39435 15.8823 8.97423C17.8129 6.56541 21.4692 5.11352 24.4678 4.65917ZM5.53216 4.65917C8.53081 5.11352 12.187 6.56541 14.1176 8.97423V24.1411C11.3013 21.5658 8.07663 20.3512 5.53216 19.782V4.65917ZM1.76469 23.2778V8.94793C2.39651 8.96664 3.07228 8.98776 3.76746 9.01429V20.5012C3.76746 20.9257 4.06981 21.29 4.48704 21.3683C6.50181 21.7465 9.12181 22.5673 11.5637 24.3348C8.07987 23.5534 4.43328 23.4278 1.76469 23.2778ZM28.2353 23.2778C25.571 23.4276 21.9215 23.553 18.4362 24.3348C20.8781 22.5673 23.4982 21.7465 25.5129 21.3683C25.9301 21.29 26.2325 20.9257 26.2325 20.5012V8.91923C27.0446 8.90105 27.7363 8.90082 28.2352 8.90535V23.2778H28.2353Z" fill="#5E5CE6"/>
<path d="M11.8298 11.0068C11.1464 10.5306 9.96824 9.94622 8.71088 9.73375C8.23059 9.65222 7.77505 9.97628 7.69382 10.4567C7.61264 10.9372 7.93635 11.3926 8.41688 11.4738C9.38765 11.6378 10.3187 12.1047 10.8211 12.4547C11.2208 12.7332 11.7708 12.635 12.0494 12.2351C12.3279 11.8353 12.2297 11.2853 11.8298 11.0068Z" fill="#5E5CE6"/>
<path d="M11.7415 15.9756C11.1127 15.5916 9.88288 14.9179 8.71088 14.7198C8.23058 14.6384 7.77505 14.9623 7.69382 15.4428C7.61264 15.9233 7.93635 16.3786 8.41688 16.4598C9.32988 16.6141 10.4028 17.2258 10.8216 17.4816C11.2381 17.7358 11.7809 17.6039 12.0346 17.1885C12.2886 16.7726 12.1573 16.2296 11.7415 15.9756Z" fill="#5E5CE6"/>
<path d="M19.1789 12.4547C19.6813 12.1047 20.6124 11.6379 21.5831 11.4738C22.0636 11.3926 22.3873 10.9373 22.3062 10.4568C22.225 9.97626 21.7695 9.65209 21.2891 9.73379C20.0318 9.94621 18.8536 10.5307 18.1702 11.0068C17.7704 11.2853 17.6721 11.8353 17.9506 12.2351C18.2293 12.6352 18.7795 12.7331 19.1789 12.4547Z" fill="#5E5CE6"/>
<path d="M21.2891 14.7199C20.1171 14.9179 18.8873 15.5916 18.2585 15.9756C17.8427 16.2296 17.7114 16.7727 17.9654 17.1886C18.2194 17.6044 18.7624 17.7356 19.1784 17.4817C19.5972 17.2258 20.6701 16.6142 21.5831 16.4599C22.0636 16.3787 22.3873 15.9234 22.3062 15.4429C22.225 14.9623 21.7695 14.6382 21.2891 14.7199Z" fill="#5E5CE6"/>
</g>
<defs>
<clipPath id="clip0">
<rect width="30" height="30" fill="white"/>
</clipPath>
</defs>
</svg>
