<svg width="53" height="60" viewBox="0 0 53 60" fill="none" xmlns="http://www.w3.org/2000/svg">
<path d="M33.3789 6.68398C33.16 6.68475 32.9447 6.62795 32.7547 6.51926L26.14 2.68745L19.4994 6.51926C19.3571 6.60123 19.2 6.65437 19.0372 6.67564C18.8743 6.69691 18.7089 6.6859 18.5503 6.64324C18.3917 6.60057 18.2431 6.52709 18.1129 6.42698C17.9827 6.32687 17.8735 6.2021 17.7915 6.05979C17.7096 5.91749 17.6564 5.76043 17.6352 5.59758C17.6139 5.43474 17.6249 5.2693 17.6676 5.11071C17.7102 4.95212 17.7837 4.80349 17.8838 4.6733C17.9839 4.54311 18.1087 4.43392 18.251 4.35195L25.5245 0.182032C25.714 0.0716083 25.9294 0.0134277 26.1487 0.0134277C26.368 0.0134277 26.5834 0.0716083 26.7729 0.182032L34.0117 4.36929C34.251 4.50612 34.4382 4.71829 34.5443 4.97271C34.6503 5.22712 34.6692 5.50947 34.5979 5.77573C34.5266 6.04198 34.3693 6.27716 34.1503 6.4446C33.9314 6.61203 33.6632 6.7023 33.3876 6.70132" fill="white"/>
<path d="M26.14 39.6185C25.9724 39.6186 25.8064 39.5849 25.6521 39.5195C25.4977 39.4541 25.3581 39.3582 25.2416 39.2377C25.1251 39.1171 25.0341 38.9743 24.974 38.8179C24.9138 38.6614 24.8858 38.4943 24.8917 38.3268V29.987C24.8917 29.6559 25.0232 29.3383 25.2573 29.1042C25.4914 28.8701 25.8089 28.7386 26.14 28.7386C26.4711 28.7386 26.7887 28.8701 27.0228 29.1042C27.2569 29.3383 27.3884 29.6559 27.3884 29.987V38.3268C27.3884 38.6579 27.2569 38.9754 27.0228 39.2095C26.7887 39.4436 26.4711 39.5752 26.14 39.5752" fill="white"/>
<path d="M1.25923 25.2276C0.928136 25.2276 0.610607 25.0961 0.376491 24.8619C0.142375 24.6278 0.010849 24.3103 0.010849 23.9792V15.6047C0.010849 15.2736 0.142375 14.9561 0.376491 14.722C0.610607 14.4878 0.928136 14.3563 1.25923 14.3563C1.59031 14.3563 1.90784 14.4878 2.14196 14.722C2.37607 14.9561 2.50759 15.2736 2.50759 15.6047V23.9792C2.50759 24.3103 2.37607 24.6278 2.14196 24.8619C1.90784 25.0961 1.59031 25.2276 1.25923 25.2276Z" fill="white"/>
<path d="M50.9948 25.2276C50.6637 25.2276 50.3462 25.0961 50.1121 24.8619C49.8779 24.6278 49.7464 24.3103 49.7464 23.9792V15.6047C49.7464 15.2736 49.8779 14.9561 50.1121 14.722C50.3462 14.4878 50.6637 14.3563 50.9948 14.3563C51.3259 14.3563 51.6434 14.4878 51.8775 14.722C52.1116 14.9561 52.2432 15.2736 52.2432 15.6047V23.9792C52.2432 24.3103 52.1116 24.6278 51.8775 24.8619C51.6434 25.0961 51.3259 25.2276 50.9948 25.2276Z" fill="white"/>
<path d="M51.0035 45.6177C50.6768 45.6177 50.3632 45.4898 50.1298 45.2613C49.8964 45.0327 49.7619 44.7219 49.7551 44.3953V35.9861C49.7551 35.655 49.8866 35.3375 50.1207 35.1034C50.3549 34.8693 50.6724 34.7377 51.0035 34.7377C51.3345 34.7377 51.6521 34.8693 51.8862 35.1034C52.1203 35.3375 52.2518 35.655 52.2518 35.9861V44.3953C52.2518 44.7264 52.1203 45.0439 51.8862 45.278C51.6521 45.5121 51.3345 45.6437 51.0035 45.6437V45.6177Z" fill="white"/>
<path d="M1.25923 45.6177C0.932593 45.6177 0.618941 45.4898 0.385559 45.2613C0.152177 45.0327 0.0176538 44.7219 0.010849 44.3953V35.9861C0.010849 35.655 0.142375 35.3375 0.376491 35.1034C0.610607 34.8693 0.928136 34.7377 1.25923 34.7377C1.59031 34.7377 1.90784 34.8693 2.14196 35.1034C2.37607 35.3375 2.50759 35.655 2.50759 35.9861V44.3953C2.50759 44.7264 2.37607 45.0439 2.14196 45.278C1.90784 45.5121 1.59031 45.6437 1.25923 45.6437" fill="white"/>
<path d="M26.14 11.6255C25.8089 11.6255 25.4914 11.494 25.2573 11.2598C25.0232 11.0257 24.8916 10.7082 24.8916 10.3771V1.24837C24.8916 0.917283 25.0232 0.599754 25.2573 0.365639C25.4914 0.131523 25.8089 0 26.14 0C26.4711 0 26.7886 0.131523 27.0228 0.365639C27.2569 0.599754 27.3884 0.917283 27.3884 1.24837V10.3771C27.3884 10.7082 27.2569 11.0257 27.0228 11.2598C26.7886 11.494 26.4711 11.6255 26.14 11.6255Z" fill="white"/>
<path d="M26.14 60C25.8089 60 25.4914 59.8685 25.2573 59.6343C25.0232 59.4002 24.8916 59.0827 24.8916 58.7516V50.3858C24.8916 50.0547 25.0232 49.7371 25.2573 49.503C25.4914 49.2689 25.8089 49.1374 26.14 49.1374C26.4711 49.1374 26.7886 49.2689 27.0228 49.503C27.2569 49.7371 27.3884 50.0547 27.3884 50.3858V58.7603C27.3861 59.0899 27.2536 59.4052 27.0197 59.6374C26.7858 59.8696 26.4696 60 26.14 60Z" fill="white"/>
<path d="M26.14 60C25.9212 60.0003 25.706 59.9436 25.5158 59.8353L18.2337 55.6653C17.9462 55.4998 17.7364 55.2269 17.6502 54.9066C17.564 54.5863 17.6086 54.2449 17.7742 53.9575C17.9397 53.6701 18.2127 53.4602 18.5329 53.3741C18.8532 53.2879 19.1946 53.3325 19.482 53.498L26.1487 57.3558L32.72 53.55C32.9942 53.4491 33.2952 53.4476 33.5704 53.5457C33.8457 53.6438 34.0778 53.8354 34.2263 54.0871C34.3748 54.3387 34.4304 54.6345 34.3832 54.9229C34.3361 55.2113 34.1893 55.4741 33.9684 55.6653L26.7729 59.8353C26.583 59.9443 26.3677 60.0012 26.1487 60" fill="white"/>
<path d="M26.1401 31.2353C25.9212 31.2357 25.706 31.1789 25.5159 31.0706L18.251 26.8747C17.9636 26.7092 17.7537 26.4362 17.6676 26.1159C17.5814 25.7957 17.626 25.4543 17.7916 25.1669C17.9571 24.8794 18.23 24.6696 18.5503 24.5834C18.8706 24.4972 19.212 24.5418 19.4994 24.7074L26.1401 28.5392L32.7547 24.7074C33.0396 24.5611 33.3699 24.5299 33.6772 24.6203C33.9844 24.7107 34.2452 24.9157 34.4056 25.193C34.5659 25.4702 34.6136 25.7985 34.5386 26.1099C34.4637 26.4213 34.272 26.692 34.0031 26.866L26.7642 31.062C26.5744 31.171 26.359 31.2278 26.1401 31.2267" fill="white"/>
<path d="M43.7473 21.049C43.4717 21.05 43.2035 20.9597 42.9846 20.7923C42.7656 20.6248 42.6082 20.3897 42.537 20.1234C42.4657 19.8571 42.4846 19.5748 42.5906 19.3204C42.6966 19.066 42.8839 18.8538 43.1231 18.717L50.3706 14.5297C50.513 14.4477 50.67 14.3946 50.8329 14.3733C50.9957 14.3521 51.1611 14.3631 51.3197 14.4057C51.4783 14.4484 51.6269 14.5219 51.7571 14.622C51.8873 14.7221 51.9965 14.8469 52.0785 14.9892C52.1605 15.1315 52.2136 15.2885 52.2349 15.4514C52.2561 15.6142 52.2451 15.7797 52.2025 15.9383C52.1598 16.0968 52.0863 16.2455 51.9862 16.3757C51.8861 16.5059 51.7613 16.6151 51.619 16.697L44.3715 20.8843C44.1815 20.993 43.9662 21.0498 43.7473 21.049Z" fill="white"/>
<path d="M50.9948 16.8531C50.7759 16.8543 50.5605 16.7974 50.3706 16.6884L43.1145 12.4924C42.8271 12.3269 42.6172 12.054 42.531 11.7337C42.4449 11.4134 42.4894 11.072 42.655 10.7846C42.8205 10.4972 43.0935 10.2873 43.4138 10.2011C43.734 10.115 44.0754 10.1596 44.3628 10.3251L51.619 14.521C51.8583 14.6579 52.0455 14.87 52.1516 15.1245C52.2576 15.3789 52.2764 15.6612 52.2052 15.9275C52.1339 16.1937 51.9765 16.4289 51.7576 16.5964C51.5386 16.7638 51.2704 16.8541 50.9948 16.8531Z" fill="white"/>
<path d="M8.50676 21.0489C8.28786 21.0497 8.0726 20.9929 7.88258 20.8842L0.63507 16.6536C0.347666 16.4881 0.137792 16.2151 0.051625 15.8949C-0.0345425 15.5746 0.0100554 15.2332 0.1756 14.9458C0.341145 14.6584 0.614076 14.4485 0.934359 14.3623C1.25464 14.2762 1.59604 14.3208 1.88344 14.4863L9.13962 18.6736C9.37888 18.8104 9.56613 19.0226 9.67216 19.277C9.77819 19.5314 9.79704 19.8138 9.72578 20.08C9.65452 20.3463 9.49714 20.5814 9.2782 20.7489C9.05925 20.9163 8.79105 21.0066 8.51543 21.0056" fill="white"/>
<path d="M1.25926 16.8531C0.983633 16.854 0.715432 16.7638 0.496489 16.5963C0.277546 16.4289 0.120169 16.1937 0.0489047 15.9275C-0.0223601 15.6612 -0.00350666 15.3789 0.102525 15.1245C0.208557 14.87 0.395808 14.6579 0.635068 14.521L7.88257 10.3425C8.16998 10.1769 8.51137 10.1323 8.83165 10.2185C9.15194 10.3046 9.42488 10.5145 9.59042 10.8019C9.75597 11.0893 9.80056 11.4307 9.71439 11.751C9.62822 12.0713 9.41835 12.3442 9.13094 12.5098L1.88344 16.6537C1.69326 16.762 1.47811 16.8188 1.25926 16.8184" fill="white"/>
<path d="M43.7387 49.8049C43.463 49.8059 43.1948 49.7156 42.9759 49.5482C42.7569 49.3808 42.5996 49.1456 42.5283 48.8793C42.457 48.6131 42.4759 48.3307 42.5819 48.0763C42.688 47.8219 42.8752 47.6097 43.1145 47.4729L50.3793 43.2856C50.5216 43.2037 50.6787 43.1505 50.8415 43.1292C51.0044 43.108 51.1698 43.119 51.3284 43.1617C51.487 43.2043 51.6356 43.2778 51.7658 43.3779C51.896 43.478 52.0052 43.6028 52.0871 43.7451C52.1691 43.8874 52.2223 44.0445 52.2435 44.2073C52.2648 44.3701 52.2538 44.5356 52.2111 44.6942C52.1685 44.8528 52.095 45.0014 51.9949 45.1316C51.8948 45.2618 51.77 45.371 51.6277 45.4529L44.3628 49.6402C44.1728 49.7489 43.9576 49.8057 43.7387 49.8049Z" fill="white"/>
<path d="M50.9948 45.6177C50.7759 45.6188 50.5605 45.562 50.3706 45.4529L43.1145 41.2657C42.8271 41.1001 42.6172 40.8272 42.531 40.5069C42.4449 40.1866 42.4894 39.8452 42.655 39.5578C42.8205 39.2704 43.0935 39.0606 43.4138 38.9744C43.734 38.8882 44.0754 38.9328 44.3628 39.0984L51.619 43.2856C51.8583 43.4225 52.0455 43.6346 52.1516 43.889C52.2576 44.1435 52.2764 44.4258 52.2052 44.6921C52.1339 44.9583 51.9765 45.1935 51.7576 45.3609C51.5386 45.5284 51.2704 45.6186 50.9948 45.6177Z" fill="white"/>
<path d="M8.50675 49.8136C8.28784 49.8144 8.07258 49.7576 7.88256 49.6489L0.626383 45.4529C0.338979 45.2874 0.129112 45.0145 0.0429444 44.6942C-0.0432231 44.3739 0.00136827 44.0325 0.166913 43.7451C0.332458 43.4577 0.605389 43.2478 0.925672 43.1617C1.24596 43.0755 1.58736 43.1201 1.87476 43.2856L9.13093 47.4816C9.37019 47.6184 9.55744 47.8306 9.66347 48.085C9.7695 48.3394 9.78836 48.6217 9.71709 48.888C9.64583 49.1542 9.48845 49.3894 9.26951 49.5569C9.05057 49.7243 8.78237 49.8146 8.50675 49.8136Z" fill="white"/>
<path d="M1.25926 45.6177C0.983633 45.6186 0.715432 45.5284 0.496489 45.3609C0.277546 45.1935 0.120169 44.9583 0.0489047 44.6921C-0.0223601 44.4258 -0.00350666 44.1435 0.102525 43.889C0.208557 43.6346 0.395808 43.4225 0.635068 43.2856L7.8739 39.0897C8.01621 39.0077 8.17327 38.9546 8.33611 38.9333C8.49895 38.9121 8.6644 38.9231 8.82298 38.9657C8.98157 39.0084 9.13021 39.0819 9.2604 39.182C9.39058 39.2821 9.49978 39.4069 9.58175 39.5492C9.66372 39.6915 9.71686 39.8485 9.73813 40.0114C9.7594 40.1742 9.74838 40.3397 9.70572 40.4983C9.66305 40.6568 9.58957 40.8055 9.48946 40.9357C9.38936 41.0659 9.26459 41.175 9.12228 41.257L1.88344 45.4443C1.69342 45.553 1.47816 45.6098 1.25926 45.609" fill="white"/>
<g opacity="0.2">
<g opacity="0.2">
<path opacity="0.2" d="M1.25923 16.3156C1.10278 16.3155 0.950711 16.2639 0.826604 16.1686C0.702497 16.0734 0.613276 15.9398 0.57278 15.7887C0.532285 15.6376 0.542772 15.4773 0.602617 15.3328C0.662461 15.1882 0.768321 15.0675 0.903784 14.9892L25.7932 0.624206C25.9563 0.533783 26.1483 0.51101 26.3279 0.560793C26.5076 0.610576 26.6605 0.728931 26.7537 0.890362C26.8469 1.05179 26.873 1.24338 26.8263 1.42386C26.7796 1.60433 26.6639 1.75925 26.5041 1.85524L1.61466 16.2202C1.50661 16.2826 1.38402 16.3155 1.25923 16.3156Z" fill="white"/>
</g>
</g>
<g opacity="0.2">
<g opacity="0.2">
<path opacity="0.2" d="M1.25923 45.0802C1.10278 45.0801 0.950711 45.0285 0.826604 44.9332C0.702497 44.8379 0.613276 44.7044 0.57278 44.5533C0.532285 44.4022 0.542772 44.2419 0.602617 44.0974C0.662461 43.9528 0.768321 43.832 0.903784 43.7538L50.6394 14.9891C50.8024 14.8987 50.9944 14.8759 51.174 14.9257C51.3537 14.9755 51.5066 15.0939 51.5998 15.2553C51.693 15.4167 51.7191 15.6083 51.6724 15.7888C51.6257 15.9693 51.51 16.1242 51.3502 16.2202L1.61466 44.9848C1.50661 45.0472 1.38402 45.0801 1.25923 45.0802Z" fill="white"/>
</g>
</g>
<g opacity="0.2">
<g opacity="0.2">
<path opacity="0.2" d="M50.9948 16.3156C50.87 16.3155 50.7474 16.2826 50.6394 16.2202L25.7846 1.86391C25.6248 1.76792 25.5091 1.613 25.4624 1.43252C25.4157 1.25205 25.4418 1.06046 25.535 0.899029C25.6283 0.737598 25.7812 0.619243 25.9608 0.56946C26.1405 0.519677 26.3325 0.54245 26.4955 0.632873L51.3503 14.9978C51.4857 15.0761 51.5916 15.1969 51.6514 15.3414C51.7113 15.486 51.7218 15.6462 51.6813 15.7974C51.6408 15.9485 51.5516 16.082 51.4274 16.1773C51.3033 16.2725 51.1513 16.3242 50.9948 16.3242" fill="white"/>
</g>
</g>
<g opacity="0.2">
<g opacity="0.2">
<path opacity="0.2" d="M50.9948 45.0802C50.87 45.0805 50.7473 45.0476 50.6394 44.9848L0.903798 16.2202C0.743998 16.1242 0.628301 15.9693 0.581624 15.7888C0.534946 15.6083 0.561026 15.4167 0.654247 15.2553C0.747467 15.0939 0.900368 14.9755 1.08001 14.9257C1.25965 14.8759 1.45166 14.8987 1.61468 14.9891L51.3589 43.7538C51.4944 43.832 51.6002 43.9528 51.6601 44.0974C51.7199 44.2419 51.7304 44.4022 51.6899 44.5533C51.6494 44.7044 51.5602 44.8379 51.4361 44.9332C51.312 45.0285 51.1599 45.0801 51.0035 45.0802" fill="white"/>
</g>
</g>
<g opacity="0.2">
<g opacity="0.2">
<path opacity="0.2" d="M26.14 59.4798C26.0152 59.4798 25.8926 59.4469 25.7846 59.3845L0.903798 44.9848C0.743998 44.8888 0.628301 44.7339 0.581624 44.5534C0.534946 44.373 0.561026 44.1814 0.654247 44.0199C0.747467 43.8585 0.900368 43.7402 1.08001 43.6904C1.25965 43.6406 1.45166 43.6634 1.61468 43.7538L26.5041 58.1534C26.6396 58.2317 26.7455 58.3525 26.8053 58.497C26.8651 58.6416 26.8756 58.8018 26.8351 58.953C26.7946 59.1041 26.7054 59.2376 26.5813 59.3329C26.4572 59.4281 26.3051 59.4798 26.1487 59.4798" fill="white"/>
</g>
</g>
<g opacity="0.2">
<g opacity="0.2">
<path opacity="0.2" d="M26.1487 59.4798C25.9922 59.4798 25.8402 59.4281 25.7161 59.3329C25.592 59.2376 25.5028 59.1041 25.4623 58.953C25.4218 58.8018 25.4322 58.6416 25.4921 58.497C25.5519 58.3525 25.6578 58.2317 25.7933 58.1534L50.648 43.7538C50.8111 43.6634 51.0031 43.6406 51.1827 43.6904C51.3623 43.7402 51.5152 43.8585 51.6085 44.0199C51.7017 44.1814 51.7278 44.373 51.6811 44.5534C51.6344 44.7339 51.5187 44.8888 51.3589 44.9848L26.5041 59.3845C26.3961 59.4469 26.2735 59.4798 26.1487 59.4798Z" fill="white"/>
</g>
</g>
<g opacity="0.2">
<g opacity="0.2">
<path opacity="0.2" d="M1.25923 45.0802C1.07813 45.0759 0.905504 45.0026 0.776607 44.8753C0.64771 44.748 0.572266 44.5763 0.565689 44.3953V15.6047C0.565689 15.4161 0.640586 15.2353 0.773902 15.102C0.907218 14.9687 1.08803 14.8938 1.27657 14.8938C1.46511 14.8938 1.64592 14.9687 1.77924 15.102C1.91255 15.2353 1.98745 15.4161 1.98745 15.6047V44.3953C1.98745 44.5838 1.91255 44.7647 1.77924 44.898C1.64592 45.0313 1.46511 45.1062 1.27657 45.1062" fill="white"/>
</g>
</g>
<g opacity="0.2">
<g opacity="0.2">
<path opacity="0.2" d="M51.0035 45.0802C50.8149 45.0802 50.6341 45.0053 50.5008 44.872C50.3675 44.7387 50.2926 44.5578 50.2926 44.3693V15.6047C50.2926 15.5113 50.311 15.4189 50.3467 15.3326C50.3824 15.2464 50.4348 15.168 50.5008 15.102C50.5668 15.036 50.6452 14.9836 50.7314 14.9479C50.8177 14.9122 50.9101 14.8938 51.0035 14.8938C51.0968 14.8938 51.1893 14.9122 51.2755 14.9479C51.3618 14.9836 51.4401 15.036 51.5061 15.102C51.5721 15.168 51.6245 15.2464 51.6602 15.3326C51.696 15.4189 51.7143 15.5113 51.7143 15.6047V44.3953C51.7143 44.5838 51.6394 44.7647 51.5061 44.898C51.3728 45.0313 51.192 45.1062 51.0035 45.1062" fill="white"/>
</g>
</g>
<g opacity="0.2">
<g opacity="0.2">
<path opacity="0.2" d="M26.14 59.3931C25.9515 59.3931 25.7707 59.3182 25.6374 59.1849C25.504 59.0516 25.4291 58.8708 25.4291 58.6822V1.24835C25.4291 1.05982 25.504 0.879004 25.6374 0.745688C25.7707 0.612372 25.9515 0.537476 26.14 0.537476C26.3286 0.537476 26.5094 0.612372 26.6427 0.745688C26.776 0.879004 26.8509 1.05982 26.8509 1.24835V58.6822C26.8509 58.8708 26.776 59.0516 26.6427 59.1849C26.5094 59.3182 26.3286 59.3931 26.14 59.3931Z" fill="white"/>
</g>
</g>
</svg>
