<svg width="25" height="25" viewBox="0 0 25 25" fill="none" xmlns="http://www.w3.org/2000/svg">
<g clip-path="url(#clip0)">
<path d="M24.2216 2.21182C24.1697 1.25847 23.4115 0.500363 22.4581 0.448332C20.5345 0.343238 16.7702 0.445473 13.1708 2.30721C11.3358 3.25633 9.39522 4.8655 7.84652 6.72213C7.82744 6.745 7.80888 6.76802 7.78994 6.79094L4.27525 7.06244C3.69672 7.10716 3.18142 7.41039 2.86145 7.89433L0.463611 11.5211C0.220939 11.8882 0.182361 12.3475 0.360346 12.7498C0.538377 13.1522 0.904189 13.4326 1.33895 13.5L4.3001 13.9586C4.28964 14.0162 4.27914 14.0737 4.26953 14.1312C4.17095 14.7209 4.36633 15.3272 4.79224 15.7531L8.91686 19.8777C9.26997 20.2308 9.74711 20.4255 10.236 20.4255C10.3367 20.4255 10.438 20.4172 10.5387 20.4004C10.5963 20.3908 10.6538 20.3803 10.7114 20.3698L11.17 23.331C11.2374 23.7658 11.5178 24.1316 11.92 24.3096C12.0874 24.3837 12.2646 24.4203 12.4409 24.4203C12.6886 24.4202 12.9345 24.3481 13.1488 24.2064L16.7756 21.8085C17.2596 21.4885 17.5628 20.9732 17.6074 20.3947L17.8789 16.8801C17.9018 16.8611 17.9249 16.8426 17.9478 16.8235C19.8044 15.2748 21.4136 13.3342 22.3627 11.4992C24.2245 7.89963 24.3266 4.13533 24.2216 2.21182ZM16 20.6354L12.5308 22.9292L12.0838 20.0433C13.55 19.6122 15.0005 18.9217 16.3823 17.9967L16.2055 20.2863C16.1944 20.4292 16.1195 20.5564 16 20.6354ZM9.91122 18.8834L5.78655 14.7587C5.68131 14.6534 5.63266 14.5055 5.65652 14.3631C5.77914 13.6298 5.96969 12.9318 6.20556 12.2742L12.3944 18.4631C11.6046 18.7459 10.8972 18.9147 10.3068 19.0134C10.1642 19.0371 10.0165 18.9886 9.91122 18.8834ZM4.38358 8.46452L6.67314 8.28766C5.74811 9.66949 5.05764 11.1199 4.62653 12.5862L1.74072 12.1392L4.0345 8.66993C4.11353 8.55039 4.2408 8.47554 4.38358 8.46452ZM17.0471 15.7436C15.9112 16.691 14.8085 17.3763 13.7922 17.8722L6.79745 10.8775C7.44705 9.55075 8.23984 8.44596 8.92638 7.62293C10.3596 5.90472 12.1421 4.42249 13.8169 3.55624C17.1204 1.8475 20.6009 1.75549 22.3816 1.85243C22.6172 1.86527 22.8047 2.05272 22.8175 2.28846C22.9146 4.06914 22.8224 7.54961 21.1137 10.8531C20.2475 12.5279 18.7652 14.3103 17.0471 15.7436Z" fill="#8E8E93"/>
<path d="M16.69 11.4938C17.5901 11.4937 18.4906 11.151 19.1759 10.4658C19.8399 9.80177 20.2055 8.91893 20.2055 7.97993C20.2055 7.04093 19.8399 6.15809 19.1759 5.4941C17.8052 4.12334 15.5748 4.12343 14.2042 5.4941C13.5402 6.15809 13.1745 7.04093 13.1745 7.97993C13.1745 8.91893 13.5402 9.80177 14.2042 10.4658C14.8896 11.1512 15.7896 11.4939 16.69 11.4938ZM15.1985 6.48842C15.6097 6.07718 16.1498 5.87159 16.69 5.87159C17.2301 5.87159 17.7703 6.07718 18.1815 6.48842C18.5799 6.88681 18.7992 7.41649 18.7992 7.97988C18.7992 8.54328 18.5799 9.07301 18.1815 9.4714C17.3591 10.2938 16.0209 10.2938 15.1984 9.4714C14.8 9.07301 14.5806 8.54332 14.5806 7.97993C14.5806 7.41654 14.8001 6.88681 15.1985 6.48842Z" fill="#8E8E93"/>
<path d="M0.967232 20.1982C1.14718 20.1982 1.32714 20.1296 1.46439 19.9923L3.76 17.6966C4.03459 17.4221 4.03459 16.9769 3.76 16.7023C3.48545 16.4277 3.04023 16.4277 2.76564 16.7023L0.470075 18.9979C0.195481 19.2725 0.195481 19.7177 0.470075 19.9923C0.607325 20.1296 0.787278 20.1982 0.967232 20.1982Z" fill="#8E8E93"/>
<path d="M5.8638 18.806C5.58926 18.5314 5.14404 18.5314 4.86944 18.806L0.455976 23.2196C0.181382 23.4942 0.181382 23.9393 0.455976 24.2139C0.593273 24.3512 0.773179 24.4198 0.953132 24.4198C1.13309 24.4198 1.31304 24.3512 1.45029 24.2139L5.86376 19.8004C6.1384 19.5258 6.1384 19.0806 5.8638 18.806Z" fill="#8E8E93"/>
<path d="M6.97323 20.9098L4.67762 23.2054C4.40303 23.48 4.40303 23.9252 4.67762 24.1998C4.81492 24.3371 4.99487 24.4057 5.17478 24.4057C5.35469 24.4057 5.53469 24.3371 5.67194 24.1998L7.96755 21.9042C8.24214 21.6296 8.24214 21.1844 7.96755 20.9098C7.693 20.6352 7.24778 20.6352 6.97323 20.9098Z" fill="#8E8E93"/>
</g>
<defs>
<clipPath id="clip0">
<rect width="24" height="24" fill="white" transform="translate(0.25 0.419922)"/>
</clipPath>
</defs>
</svg>
